<svg width="61" height="39" viewBox="0 0 61 39" fill="none" xmlns="http://www.w3.org/2000/svg">
<g clip-path="url(#clip0_1438_529)">
<path d="M7.5 8.01172H14.4659L20.375 22.6079H20.6478L26.5568 8.01172H33.5228V31.5867H28.0455V17.1056H27.8522L22.2614 31.437H18.7614L13.1705 17.025H12.9773V31.5867H7.5V8.01172Z" fill="white"/>
<path d="M45.6477 25.8427C43.8144 25.8427 42.2387 25.4628 40.9205 24.7031C39.6099 23.9357 38.5985 22.869 37.8864 21.5029C37.1818 20.1293 36.8296 18.5369 36.8296 16.7258C36.8296 14.907 37.1818 13.3147 37.8864 11.9486C38.5985 10.575 39.6099 9.50826 40.9205 8.74852C42.2387 7.98113 43.8144 7.59741 45.6477 7.59741C47.4811 7.59741 49.053 7.98113 50.3635 8.74852C51.682 9.50826 52.693 10.575 53.398 11.9486C54.11 13.3147 54.466 14.907 54.466 16.7258C54.466 18.5369 54.11 20.1293 53.398 21.5029C52.693 22.869 51.682 23.9357 50.3635 24.7031C49.053 25.4628 47.4811 25.8427 45.6477 25.8427ZM45.6818 21.5951C46.3485 21.5951 46.9129 21.3879 47.375 20.9734C47.8371 20.559 48.1894 19.9835 48.4318 19.2468C48.6818 18.5101 48.8068 17.6582 48.8068 16.6912C48.8068 15.709 48.6818 14.8495 48.4318 14.1127C48.1894 13.376 47.8371 12.8005 47.375 12.3861C46.9129 11.9717 46.3485 11.7645 45.6818 11.7645C44.9924 11.7645 44.4091 11.9717 43.9318 12.3861C43.4621 12.8005 43.1023 13.376 42.8523 14.1127C42.6099 14.8495 42.4887 15.709 42.4887 16.6912C42.4887 17.6582 42.6099 18.5101 42.8523 19.2468C43.1023 19.9835 43.4621 20.559 43.9318 20.9734C44.4091 21.3879 44.9924 21.5951 45.6818 21.5951Z" fill="white"/>
<path d="M37.2386 27.5348H54.2385V31.5867H37.2386V27.5348Z" fill="white"/>
</g>
<defs>
<clipPath id="clip0_1438_529">
<rect width="61" height="39" fill="white"/>
</clipPath>
</defs>
</svg>
